<?xml version="1.0" standalone="no"?>
<!DOCTYPE svg PUBLIC "-//W3C//DTD SVG 20010904//EN"
 "http://www.w3.org/TR/2001/REC-SVG-20010904/DTD/svg10.dtd">
<svg version="1.0" xmlns="http://www.w3.org/2000/svg"
 width="103.000000pt" height="103.000000pt" viewBox="0 0 103.000000 103.000000"
 preserveAspectRatio="xMidYMid meet">
<metadata>
Created by potrace 1.11, written by Peter Selinger 2001-2013
</metadata>
<g transform="translate(0.000000,103.000000) scale(0.100000,-0.100000)"
fill="#000000" stroke="none">
<path d="M413 1001 c-17 -11 -36 -28 -42 -39 -18 -34 -5 -153 32 -279 50 -172
53 -177 104 -181 55 -4 61 6 113 188 50 176 52 252 8 297 -23 23 -37 27 -105
30 -65 4 -83 1 -110 -16z"/>
<path d="M80 922 c-59 -28 -86 -79 -75 -141 8 -46 18 -56 110 -105 46 -24 93
-60 135 -105 78 -81 103 -97 120 -76 18 21 15 46 -14 165 -49 196 -99 261
-204 267 -32 1 -64 -1 -72 -5z"/>
<path d="M805 914 c-45 -23 -59 -39 -88 -99 -28 -55 -77 -239 -77 -286 0 -68
46 -53 131 43 41 46 78 75 137 106 93 49 102 58 109 110 7 54 -21 110 -63 128
-44 18 -112 18 -149 -2z"/>
<path d="M402 390 c-55 -25 -57 -47 -13 -133 51 -100 79 -168 86 -208 3 -19
10 -38 14 -42 17 -17 44 -2 53 28 23 79 34 107 77 195 26 52 46 101 45 108 -1
6 -2 17 -3 23 0 5 -21 19 -46 30 -56 25 -157 24 -213 -1z"/>
</g>
</svg>
